<?xml version="1.0" encoding="utf-8"?>
<!-- Generator: Adobe Illustrator 21.0.2, SVG Export Plug-In . SVG Version: 6.00 Build 0)  -->
<svg version="1.1" id="Capa_1" xmlns="http://www.w3.org/2000/svg" xmlns:xlink="http://www.w3.org/1999/xlink" x="0px" y="0px"
	 viewBox="0 0 196.7 196.7" style="enable-background:new 0 0 196.7 196.7;" xml:space="preserve">
<style type="text/css">
	.st0{fill:#464646;}
</style>
<g>
	<path class="st0" d="M110.3,57.9c0-10-6.6-15.4-16.4-15.4c-9,0-15.6,4.6-22.2,11.2l-19.8-18c11-13.2,26.4-22.2,44.5-22.2
		c27.6,0,48.4,13,48.4,41.8c0,30.3-36.7,39.4-33.7,68.5H79.5C74.7,90.2,110.3,76.3,110.3,57.9z M95.2,137.9
		c12.5,0,21.8,9.8,21.8,22.7c0,12.7-9.3,22.5-21.8,22.5s-21.5-9.8-21.5-22.5C73.7,147.6,82.7,137.9,95.2,137.9z"/>
</g>
</svg>
